<svg width="25" height="19" viewBox="0 0 25 19" fill="none" xmlns="http://www.w3.org/2000/svg">
<path d="M24.7008 8.13335L23.86 5.61252C23.6394 4.94851 23.2152 4.3709 22.6477 3.96175C22.0801 3.5526 21.398 3.33272 20.6983 3.33335H19.0833C18.8899 2.39286 18.3782 1.54781 17.6344 0.940618C16.8906 0.333428 15.9602 0.00123118 15 1.90735e-05H4.16667C3.062 0.00134229 2.00296 0.440754 1.22185 1.22187C0.440735 2.00298 0.00132321 3.06202 0 4.16669V15.4167C0.00712928 15.9929 0.183939 16.5541 0.508324 17.0304C0.832709 17.5066 1.29028 17.8766 1.82382 18.0942C2.35737 18.3118 2.94322 18.3673 3.50814 18.2538C4.07305 18.1402 4.59196 17.8627 5 17.4559C5.40804 17.8627 5.92695 18.1402 6.49186 18.2538C7.05678 18.3673 7.64263 18.3118 8.17618 18.0942C8.70972 17.8766 9.16729 17.5066 9.49168 17.0304C9.81606 16.5541 9.99287 15.9929 10 15.4167V15H17.5V15.4167C17.5 16.1902 17.8073 16.9321 18.3543 17.4791C18.9013 18.0261 19.6431 18.3334 20.4167 18.3334C21.1902 18.3334 21.9321 18.0261 22.4791 17.4791C23.026 16.9321 23.3333 16.1902 23.3333 15.4167V14.5525C23.8399 14.26 24.2606 13.8394 24.5532 13.3328C24.8457 12.8263 24.9998 12.2517 25 11.6667V9.97835C25.0001 9.35127 24.8991 8.72828 24.7008 8.13335ZM22.2792 6.14002L23.01 8.33335H19.1667V5.00002H20.6983C21.0481 5.00011 21.389 5.11026 21.6728 5.31486C21.9565 5.51946 22.1686 5.80814 22.2792 6.14002ZM1.66667 4.16669C1.66667 3.50364 1.93006 2.86776 2.3989 2.39892C2.86774 1.93008 3.50363 1.66669 4.16667 1.66669H15C15.663 1.66669 16.2989 1.93008 16.7678 2.39892C17.2366 2.86776 17.5 3.50364 17.5 4.16669V13.3334H1.66667V4.16669ZM2.91667 16.6667C2.58515 16.6667 2.2672 16.535 2.03278 16.3006C1.79836 16.0661 1.66667 15.7482 1.66667 15.4167V15H4.16667V15.4167C4.16667 15.7482 4.03497 16.0661 3.80055 16.3006C3.56613 16.535 3.24819 16.6667 2.91667 16.6667ZM8.33333 15.4167C8.33333 15.7482 8.20164 16.0661 7.96722 16.3006C7.7328 16.535 7.41485 16.6667 7.08333 16.6667C6.75181 16.6667 6.43387 16.535 6.19945 16.3006C5.96503 16.0661 5.83333 15.7482 5.83333 15.4167V15H8.33333V15.4167ZM21.6667 15.4167C21.6667 15.7482 21.535 16.0661 21.3005 16.3006C21.0661 16.535 20.7482 16.6667 20.4167 16.6667C20.0851 16.6667 19.7672 16.535 19.5328 16.3006C19.2984 16.0661 19.1667 15.7482 19.1667 15.4167V15H21.6667V15.4167ZM21.6667 13.3334H19.1667V10H23.3333V11.6667C23.3333 12.1087 23.1577 12.5326 22.8452 12.8452C22.5326 13.1578 22.1087 13.3334 21.6667 13.3334Z" fill="#132B45"/>
</svg>
