<svg width="20" height="22" viewBox="0 0 20 22" fill="none" xmlns="http://www.w3.org/2000/svg">
<path d="M10 7C9.20888 7 8.43552 7.2346 7.77772 7.67412C7.11993 8.11365 6.60723 8.73836 6.30448 9.46926C6.00173 10.2002 5.92252 11.0044 6.07686 11.7804C6.2312 12.5563 6.61216 13.269 7.17157 13.8284C7.73098 14.3878 8.44372 14.7688 9.21964 14.9231C9.99556 15.0775 10.7998 14.9983 11.5307 14.6955C12.2616 14.3928 12.8864 13.8801 13.3259 13.2223C13.7654 12.5645 14 11.7911 14 11C14 9.93913 13.5786 8.92172 12.8284 8.17157C12.0783 7.42143 11.0609 7 10 7ZM10 13C9.60444 13 9.21776 12.8827 8.88886 12.6629C8.55996 12.4432 8.30362 12.1308 8.15224 11.7654C8.00087 11.3999 7.96126 10.9978 8.03843 10.6098C8.1156 10.2219 8.30608 9.86549 8.58579 9.58579C8.86549 9.30608 9.22186 9.1156 9.60982 9.03843C9.99778 8.96126 10.3999 9.00086 10.7654 9.15224C11.1308 9.30361 11.4432 9.55996 11.6629 9.88886C11.8827 10.2178 12 10.6044 12 11C12 11.5304 11.7893 12.0391 11.4142 12.4142C11.0391 12.7893 10.5304 13 10 13Z" fill="#132B45"/>
<path d="M18.6082 12.7417L18.197 12.507C18.3821 11.5101 18.3821 10.4881 18.197 9.49117L18.6082 9.2565C18.9244 9.07593 19.2017 8.83549 19.424 8.54889C19.6464 8.26229 19.8095 7.93516 19.9041 7.58617C19.9987 7.23717 20.0229 6.87315 19.9754 6.51489C19.9279 6.15663 19.8095 5.81115 19.627 5.49817C19.4446 5.18518 19.2016 4.91083 18.9121 4.69077C18.6225 4.47071 18.2919 4.30926 17.9393 4.21562C17.5867 4.12199 17.2189 4.09802 16.8569 4.14506C16.4949 4.19211 16.1458 4.30927 15.8296 4.48983L15.4174 4.72542C14.639 4.06718 13.7444 3.55689 12.7786 3.22025V2.75C12.7786 2.02065 12.4859 1.32118 11.9648 0.805456C11.4437 0.289731 10.7369 0 10 0C9.26306 0 8.5563 0.289731 8.03521 0.805456C7.51411 1.32118 7.22137 2.02065 7.22137 2.75V3.22025C6.25569 3.5581 5.36139 4.06963 4.58352 4.72908L4.1695 4.49167C3.53082 4.12699 2.77192 4.02836 2.05976 4.21746C1.3476 4.40656 0.740505 4.8679 0.372035 5.5C0.00356507 6.1321 -0.0960982 6.88318 0.09497 7.588C0.286038 8.29282 0.752186 8.89366 1.39087 9.25833L1.8021 9.493C1.61696 10.4899 1.61696 11.5119 1.8021 12.5088L1.39087 12.7435C0.752186 13.1082 0.286038 13.709 0.09497 14.4138C-0.0960982 15.1187 0.00356507 15.8697 0.372035 16.5018C0.740505 17.1339 1.3476 17.5953 2.05976 17.7844C2.77192 17.9735 3.53082 17.8748 4.1695 17.5102L4.58166 17.2746C5.36039 17.9329 6.25531 18.4432 7.22137 18.7798V19.25C7.22137 19.9793 7.51411 20.6788 8.03521 21.1945C8.5563 21.7103 9.26306 22 10 22C10.7369 22 11.4437 21.7103 11.9648 21.1945C12.4859 20.6788 12.7786 19.9793 12.7786 19.25V18.7798C13.7443 18.4419 14.6386 17.9304 15.4165 17.2709L15.8305 17.5074C16.4692 17.8721 17.2281 17.9707 17.9402 17.7816C18.6524 17.5925 19.2595 17.1312 19.628 16.4991C19.9964 15.867 20.0961 15.1159 19.905 14.4111C19.714 13.7063 19.2478 13.1054 18.6091 12.7408L18.6082 12.7417ZM16.2482 9.28033C16.5619 10.4051 16.5619 11.593 16.2482 12.7178C16.1935 12.9136 16.2059 13.1218 16.2837 13.3098C16.3615 13.4978 16.5002 13.6549 16.678 13.7564L17.682 14.3303C17.8948 14.4518 18.0502 14.6521 18.1139 14.887C18.1775 15.1219 18.1443 15.3722 18.0215 15.5829C17.8986 15.7935 17.6963 15.9473 17.4589 16.0103C17.2216 16.0733 16.9686 16.0404 16.7558 15.9188L15.7499 15.3432C15.572 15.2412 15.3648 15.2007 15.1611 15.2281C14.9573 15.2555 14.7686 15.3492 14.6246 15.4944C13.8002 16.3274 12.7616 16.9216 11.6209 17.2132C11.4218 17.2638 11.2453 17.3786 11.1194 17.5394C10.9935 17.7002 10.9252 17.898 10.9253 18.1014V19.25C10.9253 19.4931 10.8277 19.7263 10.654 19.8982C10.4803 20.0701 10.2447 20.1667 9.99907 20.1667C9.75343 20.1667 9.51784 20.0701 9.34414 19.8982C9.17044 19.7263 9.07286 19.4931 9.07286 19.25V18.1023C9.07296 17.8989 9.00467 17.7012 8.87873 17.5403C8.7528 17.3795 8.57638 17.2647 8.37728 17.2141C7.23651 16.9214 6.19821 16.3258 5.3745 15.4917C5.2305 15.3464 5.04175 15.2527 4.838 15.2253C4.63425 15.1979 4.42708 15.2384 4.24915 15.3404L3.24514 15.9152C3.13977 15.9763 3.02321 16.0162 2.90219 16.0326C2.78117 16.049 2.65807 16.0415 2.53997 16.0106C2.42188 15.9797 2.31113 15.926 2.2141 15.8525C2.11707 15.7791 2.03567 15.6874 1.9746 15.5827C1.91352 15.478 1.87397 15.3624 1.85823 15.2425C1.84249 15.1226 1.85086 15.0009 1.88286 14.8842C1.91487 14.7675 1.96987 14.6583 2.04471 14.5627C2.11955 14.4672 2.21274 14.3873 2.31893 14.3275L3.32294 13.7537C3.50073 13.6521 3.63941 13.4951 3.71719 13.3071C3.79498 13.1191 3.80747 12.9109 3.75271 12.7151C3.43905 11.5903 3.43905 10.4024 3.75271 9.27758C3.80649 9.08222 3.7934 8.87474 3.71549 8.68752C3.63757 8.5003 3.49922 8.34387 3.32202 8.24267L2.318 7.66883C2.10515 7.54728 1.94981 7.34701 1.88615 7.1121C1.82249 6.87719 1.85572 6.62687 1.97855 6.41621C2.10137 6.20555 2.30372 6.05181 2.54108 5.9888C2.77844 5.9258 3.03136 5.95869 3.24422 6.08025L4.25008 6.65592C4.42752 6.75814 4.63426 6.79911 4.83779 6.7724C5.04132 6.74568 5.23011 6.6528 5.3745 6.50833C6.19891 5.6754 7.23751 5.0811 8.3782 4.78958C8.57792 4.73877 8.7548 4.62344 8.8808 4.46188C9.0068 4.30031 9.07472 4.10176 9.07379 3.89767V2.75C9.07379 2.50688 9.17137 2.27373 9.34507 2.10182C9.51877 1.92991 9.75435 1.83333 10 1.83333C10.2456 1.83333 10.4812 1.92991 10.6549 2.10182C10.8286 2.27373 10.9262 2.50688 10.9262 2.75V3.89767C10.9261 4.10113 10.9944 4.29884 11.1203 4.45966C11.2463 4.62047 11.4227 4.73525 11.6218 4.78592C12.7629 5.07847 13.8015 5.67406 14.6255 6.50833C14.7695 6.65359 14.9583 6.7473 15.162 6.77469C15.3658 6.80207 15.5729 6.76158 15.7508 6.65958L16.7549 6.08483C16.8602 6.02369 16.9768 5.98379 17.0978 5.96741C17.2188 5.95103 17.3419 5.95851 17.46 5.98941C17.5781 6.02031 17.6889 6.07402 17.7859 6.14745C17.8829 6.22089 17.9643 6.31259 18.0254 6.41728C18.0865 6.52198 18.126 6.63759 18.1418 6.75747C18.1575 6.87736 18.1491 6.99913 18.1171 7.1158C18.0851 7.23247 18.0301 7.34172 17.9553 7.43726C17.8805 7.5328 17.7873 7.61275 17.6811 7.6725L16.6771 8.24633C16.5002 8.34781 16.3622 8.50435 16.2847 8.69155C16.2071 8.87875 16.1943 9.08518 16.2482 9.28033Z" fill="#132B45"/>
</svg>
