<svg width="19" height="20" viewBox="0 0 19 20" fill="none" xmlns="http://www.w3.org/2000/svg">
<path d="M11.6661 20C11.2053 20 10.8328 19.6275 10.8328 19.1667V18.0018C10.8328 16.7477 11.5036 15.6244 12.5827 15.0719C15.1009 13.7803 16.6658 11.2221 16.6658 8.39474C16.6658 5.51572 15.0593 2.93668 12.4744 1.66341L12.4994 6.66733C12.4994 8.50557 11.0045 10.0005 9.16621 10.0005C7.32797 10.0005 5.83304 8.50557 5.83304 6.66733V1.67757C3.27317 2.93668 1.66658 5.51572 1.66658 8.39474C1.66658 11.2221 3.23151 13.7803 5.74971 15.0719C6.82883 15.6244 7.49963 16.7477 7.49963 18.0018V19.1667C7.49963 19.6275 7.12715 20 6.66634 20C6.20552 20 5.83304 19.6275 5.83304 19.1667V18.0018C5.83304 17.386 5.50223 16.8177 4.98975 16.5552C1.9124 14.9769 0 11.8504 0 8.39557C0 4.87741 1.9624 1.72424 5.12141 0.167648C5.62972 -0.0823397 6.22219 -0.0515079 6.7055 0.25181C7.20298 0.560962 7.49963 1.09427 7.49963 1.67757V6.66733C7.49963 7.58645 8.24709 8.33391 9.16621 8.33391C10.0853 8.33391 10.8328 7.58645 10.8328 6.66733V1.67757C10.8328 1.09427 11.1294 0.560962 11.6269 0.25181C12.1111 -0.0498413 12.7044 -0.0806732 13.2102 0.167648C16.3692 1.72424 18.3316 4.87658 18.3316 8.39474C18.3316 11.8496 16.4192 14.9761 13.3418 16.5543C12.8302 16.8168 12.4985 17.3851 12.4985 18.0009V19.1659C12.4985 19.6267 12.1261 19.9992 11.6653 19.9992L11.6661 20Z" fill="#132B45"/>
</svg>
