<svg width="20" height="20" viewBox="0 0 20 20" fill="none" xmlns="http://www.w3.org/2000/svg">
<path d="M16.6675 13.3332V4.16664C16.6675 3.5036 16.9309 2.86772 17.3998 2.39888C17.8686 1.93004 18.5045 1.66665 19.1675 1.66665C19.3885 1.66665 19.6005 1.57886 19.7568 1.42258C19.913 1.2663 20.0008 1.05434 20.0008 0.833327C20.0008 0.612315 19.913 0.400355 19.7568 0.244076C19.6005 0.0877967 19.3885 0 19.1675 0C18.0629 0.0013232 17.0038 0.440732 16.2227 1.22184C15.4416 2.00295 15.0022 3.06198 15.0009 4.16664V13.5657L12.7226 14.3257C12.7267 14.0426 12.6828 13.7608 12.5926 13.4924L11.2984 9.24243C11.096 8.61143 10.6519 8.08629 10.0633 7.78191C9.4747 7.47753 8.78948 7.41869 8.15759 7.61828L2.5743 9.39326C1.95036 9.5953 1.43024 10.0335 1.12516 10.614C0.820088 11.1946 0.754279 11.8715 0.941808 12.4999L2.30346 16.9774C2.39244 17.2271 2.52103 17.461 2.6843 17.6699L0.570978 18.374C0.361016 18.4439 0.187398 18.5943 0.0883169 18.7921C-0.0107641 18.99 -0.0271916 19.2191 0.0426482 19.429C0.112488 19.639 0.262874 19.8126 0.460724 19.9117C0.658573 20.0108 0.887679 20.0272 1.09764 19.9574L13.4175 15.8524C13.2967 16.3435 13.2886 16.8557 13.3941 17.3504C13.4996 17.8451 13.7158 18.3094 14.0264 18.7086C14.3371 19.1077 14.7342 19.4313 15.1879 19.6549C15.6416 19.8786 16.1401 19.9965 16.6459 19.9999C21.0275 19.8865 21.0467 13.4741 16.6675 13.3332ZM3.88595 16.4565L2.5368 12.0174C2.47472 11.8075 2.49725 11.5815 2.59956 11.388C2.70187 11.1944 2.87585 11.0486 3.08429 10.9816L8.66758 9.2066C8.87646 9.14021 9.10309 9.15878 9.29837 9.25829C9.49365 9.35781 9.64187 9.53024 9.71091 9.73826L11.0009 13.9932L11.0101 14.0191C11.0755 14.2111 11.0685 14.4205 10.9906 14.6078C10.9127 14.7951 10.7691 14.9476 10.5867 15.0366L4.84678 16.9532C4.65372 16.9982 4.45094 16.973 4.27484 16.8819C4.09874 16.7909 3.96086 16.6401 3.88595 16.4565ZM16.6459 18.3332C16.2038 18.3332 15.7799 18.1576 15.4674 17.845C15.1548 17.5325 14.9792 17.1086 14.9792 16.6665C14.9792 16.2245 15.1548 15.8006 15.4674 15.488C15.7799 15.1755 16.2038 14.9999 16.6459 14.9999C17.0879 14.9999 17.5118 15.1755 17.8244 15.488C18.1369 15.8006 18.3125 16.2245 18.3125 16.6665C18.3125 17.1086 18.1369 17.5325 17.8244 17.845C17.5118 18.1576 17.0879 18.3332 16.6459 18.3332ZM8.37592 11.6666C8.40908 11.7709 8.42137 11.8807 8.4121 11.9897C8.40282 12.0988 8.37216 12.2049 8.32186 12.3021C8.27156 12.3993 8.20261 12.4856 8.11895 12.5562C8.03529 12.6267 7.93855 12.6801 7.83426 12.7132L5.78094 13.3674C5.5702 13.4344 5.3415 13.4149 5.14513 13.3132C4.94877 13.2116 4.80083 13.0361 4.73386 12.8253C4.6669 12.6146 4.68639 12.3859 4.78805 12.1895C4.88971 11.9932 5.06521 11.8452 5.27594 11.7782L7.33009 11.1249C7.54061 11.0582 7.769 11.0778 7.96509 11.1793C8.16118 11.2809 8.30895 11.4561 8.37592 11.6666Z" fill="#132B45"/>
</svg>
