<svg width="20" height="20" viewBox="0 0 20 20" fill="none" xmlns="http://www.w3.org/2000/svg">
<path d="M15 20H8.6975L8.94 18.975C9.06471 18.4922 9.14065 17.998 9.16667 17.5C9.16667 17.058 8.99107 16.634 8.67851 16.3215C8.36595 16.0089 7.94203 15.8333 7.5 15.8333C7.05797 15.8333 6.63405 16.0089 6.32149 16.3215C6.00893 16.634 5.83333 17.058 5.83333 17.5C5.85935 17.998 5.93529 18.4922 6.06 18.975L6.3025 20H0V7.5C0 6.83696 0.263392 6.20107 0.732233 5.73223C1.20107 5.26339 1.83696 5 2.5 5H4.39333C4.26136 4.45359 4.18541 3.89515 4.16667 3.33333C4.16667 2.44928 4.51786 1.60143 5.14298 0.976311C5.7681 0.35119 6.61594 0 7.5 0C8.38406 0 9.2319 0.35119 9.85702 0.976311C10.4821 1.60143 10.8333 2.44928 10.8333 3.33333C10.8146 3.89515 10.7386 4.45359 10.6067 5H12.5C13.163 5 13.7989 5.26339 14.2678 5.73223C14.7366 6.20107 15 6.83696 15 7.5V8.97667C15.5465 8.84521 16.1049 8.76927 16.6667 8.75C17.5507 8.75 18.3986 9.10119 19.0237 9.72631C19.6488 10.3514 20 11.1993 20 12.0833C20 12.9674 19.6488 13.8152 19.0237 14.4404C18.3986 15.0655 17.5507 15.4167 16.6667 15.4167C16.1049 15.3974 15.5465 15.3215 15 15.19V20ZM10.7617 18.3333H13.3333V12.985L14.4092 13.3117C15.1408 13.5501 15.899 13.6973 16.6667 13.75C17.1087 13.75 17.5326 13.5744 17.8452 13.2618C18.1577 12.9493 18.3333 12.5254 18.3333 12.0833C18.3333 11.6413 18.1577 11.2174 17.8452 10.9048C17.5326 10.5923 17.1087 10.4167 16.6667 10.4167C15.899 10.4694 15.1408 10.6166 14.4092 10.855L13.3333 11.1817V7.5C13.3333 7.27899 13.2455 7.06702 13.0893 6.91074C12.933 6.75446 12.721 6.66667 12.5 6.66667H8.40167L8.72833 5.59083C8.96694 4.85928 9.11417 4.10103 9.16667 3.33333C9.16667 2.89131 8.99107 2.46738 8.67851 2.15482C8.36595 1.84226 7.94203 1.66667 7.5 1.66667C7.05797 1.66667 6.63405 1.84226 6.32149 2.15482C6.00893 2.46738 5.83333 2.89131 5.83333 3.33333C5.88583 4.10103 6.03305 4.85928 6.27167 5.59083L6.59833 6.66667H2.5C2.27899 6.66667 2.06702 6.75446 1.91074 6.91074C1.75446 7.06702 1.66667 7.27899 1.66667 7.5V18.3333H4.23833C4.19495 18.0576 4.171 17.7791 4.16667 17.5C4.16667 16.6159 4.51786 15.7681 5.14298 15.143C5.7681 14.5179 6.61594 14.1667 7.5 14.1667C8.38406 14.1667 9.2319 14.5179 9.85702 15.143C10.4821 15.7681 10.8333 16.6159 10.8333 17.5C10.829 17.7791 10.805 18.0576 10.7617 18.3333Z" fill="#132B45"/>
</svg>
