<svg width="20" height="20" viewBox="0 0 20 20" fill="none" xmlns="http://www.w3.org/2000/svg">
<path d="M9.94141 0C7.03363 0 4.66797 2.36566 4.66797 5.27344C4.66797 8.18121 7.03363 10.5469 9.94141 10.5469C12.8492 10.5469 15.2148 8.18121 15.2148 5.27344C15.2148 2.36566 12.8492 0 9.94141 0ZM9.94141 8.98438C7.8952 8.98438 6.23047 7.31965 6.23047 5.27344C6.23047 3.22723 7.8952 1.5625 9.94141 1.5625C11.9876 1.5625 13.6523 3.22723 13.6523 5.27344C13.6523 7.31965 11.9876 8.98438 9.94141 8.98438ZM12.3573 12.3514C11.995 12.1175 11.5113 12.2216 11.2773 12.5841L9.94141 14.6533L8.60559 12.5841C8.37152 12.2216 7.88793 12.1175 7.52551 12.3514C7.16305 12.5855 7.05887 13.069 7.29289 13.4315L8.72668 15.6525C8.05031 16.0641 7.59766 16.8083 7.59766 17.6562C7.59766 18.9486 8.64906 20 9.94141 20C11.2338 20 12.2852 18.9486 12.2852 17.6562C12.2852 16.8083 11.8325 16.0641 11.1562 15.6525L12.59 13.4315C12.824 13.069 12.7198 12.5855 12.3573 12.3514ZM9.94141 18.4375C9.51062 18.4375 9.16016 18.087 9.16016 17.6562C9.16016 17.2259 9.50984 16.8759 9.94 16.8751C9.94023 16.8751 9.94047 16.8751 9.9407 16.8751H9.94145C9.94145 16.8751 9.94191 16.8751 9.94219 16.8751C9.94242 16.8751 9.94266 16.8751 9.94289 16.8751C10.373 16.8759 10.7227 17.226 10.7227 17.6562C10.7227 18.087 10.3722 18.4375 9.94141 18.4375ZM17.832 19.2188C17.832 19.6502 17.4823 20 17.0508 20C16.6193 20 16.2695 19.6502 16.2695 19.2188C16.2695 17.4243 15.4729 15.8017 14.0841 14.7671C13.7381 14.5094 13.6665 14.02 13.9243 13.6739C14.182 13.3279 14.6714 13.2563 15.0175 13.5141C16.8062 14.8465 17.832 16.9257 17.832 19.2188ZM6.15387 13.6739C6.41164 14.0199 6.34008 14.5094 5.99402 14.7671C4.57668 15.8229 3.73047 17.4871 3.73047 19.2188C3.73047 19.6502 3.3807 20 2.94922 20C2.51773 20 2.16797 19.6502 2.16797 19.2188C2.16797 18.0946 2.44352 16.9718 2.96473 15.9714C3.46402 15.0133 4.18875 14.1635 5.06063 13.5141C5.40668 13.2564 5.89617 13.3279 6.15387 13.6739Z" fill="#132B45"/>
</svg>
